<svg xmlns="http://www.w3.org/2000/svg" viewBox="0 0 64 64" role="img" aria-label="Noshahi Test Builder">
  <defs>
    <linearGradient id="bg" x1="8" y1="6" x2="56" y2="58" gradientUnits="userSpaceOnUse">
      <stop offset="0" stop-color="#0b66b9"/>
      <stop offset="1" stop-color="#003a78"/>
    </linearGradient>
    <linearGradient id="gold" x1="18" y1="14" x2="45" y2="44" gradientUnits="userSpaceOnUse">
      <stop offset="0" stop-color="#ffd75a"/>
      <stop offset="1" stop-color="#ffb800"/>
    </linearGradient>
  </defs>
  <rect x="4" y="4" width="56" height="56" rx="18" fill="url(#bg)"/>
  <path d="M17 21.5c0-3.04 2.46-5.5 5.5-5.5h19c3.04 0 5.5 2.46 5.5 5.5v20c0 3.04-2.46 5.5-5.5 5.5h-19c-3.04 0-5.5-2.46-5.5-5.5v-20Z" fill="#fff" opacity=".12"/>
  <path d="M20 19h24c2.21 0 4 1.79 4 4v18c0 2.21-1.79 4-4 4H20c-2.21 0-4-1.79-4-4V23c0-2.21 1.79-4 4-4Z" fill="#fff" opacity=".12"/>
  <path d="M24 17.5h16c1.66 0 3 1.34 3 3v3.5H21v-3.5c0-1.66 1.34-3 3-3Z" fill="url(#gold)"/>
  <path d="M21 26h22v14.5c0 1.93-1.57 3.5-3.5 3.5h-15c-1.93 0-3.5-1.57-3.5-3.5V26Z" fill="#fff"/>
  <path d="M26.5 31h4.5l3.2 4.28L37.5 31H42v10h-3.3v-5.42l-3.86 5.04h-1.24l-3.72-4.92V41h-3.38V31Z" fill="#003a78"/>
  <circle cx="27" cy="21.2" r="1.2" fill="#003a78"/>
  <circle cx="32" cy="21.2" r="1.2" fill="#003a78"/>
  <circle cx="37" cy="21.2" r="1.2" fill="#003a78"/>
</svg>
